<?xml version="1.0" encoding="utf-8"?>
<!-- Generator: Adobe Illustrator 25.2.1, SVG Export Plug-In . SVG Version: 6.00 Build 0)  -->
<svg version="1.1" id="Layer_1" xmlns="http://www.w3.org/2000/svg" xmlns:xlink="http://www.w3.org/1999/xlink" x="0px" y="0px"
	 viewBox="0 0 392 100" style="enable-background:new 0 0 392 100;" xml:space="preserve">
<style type="text/css">
	.st0{fill:#002D5E;}
</style>
<g>
	<path class="st0" d="M93.1,84.7c0,4.8-1.5,8.5-4.5,11.2s-7.1,4-12.2,4c-7.7,0-13-2.6-15.7-7.7l5.5-4.1c1.3,2,2.7,3.4,4.2,4.3
		s3.5,1.4,6,1.4c3.1,0,5.5-0.9,7.4-2.7s2.8-4.3,2.8-7.4v-2.1c-2.6,2.7-6.3,4-11.1,4c-4.2,0-7.9-1.5-11.1-4.6
		c-3.2-3-4.7-6.7-4.7-11.1s1.6-8.1,4.7-11c3.1-3,6.8-4.5,11.1-4.5c4.8,0,8.6,1.3,11.1,4v-3.2h6.6L93.1,84.7L93.1,84.7z M83.6,77.1
		c2-1.8,3-4.2,3-7.1s-1-5.3-3-7.1s-4.3-2.7-7.1-2.7c-2.9,0-5.4,0.9-7.4,2.7c-2,1.8-3,4.2-3,7.1s1,5.3,3,7.1s4.4,2.7,7.4,2.7
		C79.3,79.8,81.6,78.9,83.6,77.1z"/>
	<path class="st0" d="M124.7,55.2l-0.5,6.5c-0.3,0-1-0.1-1.9-0.1c-4,0-7,1.3-9.1,3.9s-3.1,6.1-3.1,10.7v11.4h-6.8V55.3h6.8v6.9
		c2.9-4.8,7-7.3,12.3-7.3C123.4,54.9,124.2,55,124.7,55.2z"/>
	<path class="st0" d="M160.7,87.6H154v-4c-2.7,3.2-6.4,4.9-11.1,4.9c-3.9,0-7-1.3-9.4-3.8s-3.5-5.8-3.5-9.9V55.3h6.8v18.1
		c0,2.6,0.7,4.8,2.1,6.4c1.4,1.6,3.3,2.4,5.6,2.4c3,0,5.3-1,7-3.1c1.7-2,2.5-5,2.5-9V55.3h6.8L160.7,87.6L160.7,87.6z"/>
	<path class="st0" d="M200.7,59.2c3.2,3.2,4.7,7.3,4.7,12.2c0,5-1.6,9.1-4.7,12.2s-6.9,4.8-11.3,4.8c-4.9,0-8.8-1.5-11.7-4.6v14.8
		H171V55.3h6.8V59c2.9-3.1,6.9-4.6,11.7-4.6C193.8,54.4,197.5,56,200.7,59.2z M195.9,79.5c2-2,3-4.7,3-8s-1-6-3-8s-4.5-3-7.5-3
		c-2.8,0-5.3,1-7.4,3.1c-2.1,2.1-3.2,4.7-3.2,8s1.1,5.9,3.2,8s4.6,3.1,7.4,3.1C191.4,82.5,193.9,81.5,195.9,79.5z"/>
	<path class="st0" d="M239.7,59.3c3.3,3.1,5,7.2,5,12.1s-1.7,9-5,12.2s-7.4,4.7-12.2,4.7c-4.9,0-9-1.6-12.3-4.7
		c-3.4-3.2-5-7.2-5-12.2s1.7-9,5-12.1s7.5-4.7,12.3-4.7S236.4,56.2,239.7,59.3z M234.9,79.4c2.1-2.1,3.2-4.7,3.2-8s-1.1-5.9-3.2-8
		c-2.1-2.1-4.6-3.1-7.5-3.1s-5.5,1-7.6,3.1s-3.1,4.7-3.1,8s1.1,5.9,3.1,8c2.1,2.1,4.6,3.1,7.6,3.1C230.3,82.5,232.8,81.5,234.9,79.4
		z"/>
</g>
<g>
	<path class="st0" d="M285.3,87.6L281,77.4h-21.2l-4.3,10.1H248L267.1,44h6.5l19.2,43.5L285.3,87.6L285.3,87.6z M270.4,52.5
		L262.5,71h15.7L270.4,52.5z"/>
	<path class="st0" d="M346,87.6h-6.8V59.7l-15,27.8H320l-15-27.8v27.8h-6.8V44h6.1L322,77l17.8-33h6L346,87.6L346,87.6z"/>
	<path class="st0" d="M375.9,44c4.8,0,8.6,1.3,11.4,3.9c2.8,2.6,4.3,6,4.3,10.2s-1.4,7.7-4.3,10.3s-6.6,3.9-11.4,3.9h-12.7v15.3h-7
		V44H375.9z M375.9,65.8c2.7,0,4.8-0.7,6.4-2.1s2.3-3.3,2.3-5.7c0-2.3-0.8-4.2-2.3-5.6s-3.7-2.1-6.4-2.1h-12.7v15.5H375.9z"/>
</g>
<path class="st0" d="M30.9,0.4c-0.4,0-0.8,0-1.2,0C13.9,1.1,1,13.8,0.2,29.6c-0.5,9.1,3.1,17.5,9,23.4c4.4,4.4,7,10.2,7,16.4V73
	c0,8.2,6.6,14.8,14.8,14.8S45.7,81.2,45.7,73v-3.6c0-6.1,2.4-11.9,6.7-16.2c5.7-5.6,9.3-13.4,9.3-22C61.7,14.2,47.9,0.4,30.9,0.4z
	 M46.8,47.5C42.1,52.2,39,58.4,38,65H23.8c-1-6.6-4.1-12.7-9-17.7c-4.6-4.6-7-10.8-6.6-17.3C8.8,18.4,18.4,8.9,30,8.5
	c0.3,0,0.6,0,0.9,0c12.6,0,22.8,10.2,22.8,22.8C53.7,37.4,51.2,43.2,46.8,47.5z"/>
</svg>
